<svg id="svg" version="1.1" xmlns="http://www.w3.org/2000/svg" xmlns:xlink="http://www.w3.org/1999/xlink" width="400" height="400" viewBox="0, 0, 400,400"><g id="svgg"><path id="path0" d="M118.359 25.937 C 117.500 26.426,99.746 40.409,78.906 57.012 C 58.066 73.614,34.974 91.993,27.589 97.853 C 20.204 103.714,13.788 109.209,13.331 110.063 C 12.118 112.331,12.168 338.260,13.383 340.926 C 15.077 344.644,12.431 344.564,126.285 344.347 C 231.166 344.146,234.258 344.099,235.856 342.652 C 238.168 340.559,238.084 335.977,235.692 333.730 L 233.884 332.031 129.442 332.031 L 25.000 332.031 25.000 225.391 L 25.000 118.750 66.406 118.750 L 107.813 118.750 107.813 169.531 C 107.813 214.264,107.953 220.313,108.990 220.313 C 109.638 220.313,118.326 212.402,128.297 202.734 C 138.269 193.066,146.770 185.156,147.190 185.156 C 147.610 185.156,155.772 193.066,165.328 202.734 C 174.885 212.402,183.255 220.313,183.930 220.313 C 185.032 220.313,185.156 215.151,185.156 169.531 L 185.156 118.750 229.281 118.750 L 273.406 118.750 273.617 173.507 L 273.828 228.264 275.672 229.757 C 278.402 231.967,282.338 231.709,284.318 229.192 C 285.922 227.153,285.938 226.601,285.938 171.354 L 285.938 115.574 317.773 81.532 L 349.609 47.490 349.808 138.144 L 350.006 228.798 352.062 230.415 C 354.766 232.542,357.230 232.457,359.917 230.146 L 362.109 228.260 362.383 128.626 L 362.656 28.991 360.660 26.996 L 358.665 25.000 239.293 25.024 C 151.530 25.041,119.508 25.283,118.359 25.937 M192.160 38.551 C 191.530 39.130,175.723 52.559,157.031 68.394 C 138.340 84.229,120.437 99.400,117.246 102.108 L 111.446 107.031 73.915 107.031 C 42.595 107.031,36.573 106.859,37.528 105.990 C 38.157 105.417,49.922 96.037,63.672 85.144 C 77.422 74.251,96.508 59.075,106.086 51.420 L 123.500 37.500 158.402 37.500 C 187.694 37.500,193.120 37.669,192.160 38.551 M251.133 38.204 C 250.725 38.592,232.468 54.236,210.563 72.970 L 170.735 107.031 150.836 107.031 C 139.594 107.031,131.260 106.737,131.680 106.356 C 132.517 105.594,190.085 56.762,203.906 45.090 L 212.891 37.503 232.383 37.501 C 243.989 37.501,251.575 37.785,251.133 38.204 M336.196 43.315 C 333.261 46.514,318.730 62.140,303.906 78.041 L 276.953 106.951 233.622 106.991 C 196.677 107.025,190.459 106.872,191.434 105.949 C 192.063 105.354,210.265 89.710,231.882 71.184 L 271.185 37.500 306.359 37.500 L 341.533 37.500 336.196 43.315 M172.656 155.151 L 172.656 191.552 168.945 188.409 C 166.904 186.680,161.216 181.218,156.305 176.270 L 147.376 167.273 137.292 176.801 C 131.746 182.041,125.657 187.674,123.760 189.319 L 120.313 192.309 120.313 155.530 L 120.313 118.750 146.484 118.750 L 172.656 118.750 172.656 155.151 M308.594 235.962 C 251.101 243.886,226.949 314.799,267.877 355.511 C 311.188 398.594,384.375 370.482,387.989 309.375 C 390.539 266.253,351.399 230.062,308.594 235.962 M331.842 249.602 C 378.169 260.633,391.186 322.913,353.182 351.704 C 314.719 380.842,260.029 353.926,260.029 305.859 C 260.029 268.085,294.862 240.797,331.842 249.602 M326.231 291.480 L 308.380 315.772 301.061 308.483 L 293.741 301.194 288.089 306.846 L 282.437 312.498 296.095 326.173 C 303.607 333.694,309.994 339.759,310.288 339.651 C 310.785 339.467,351.658 284.215,354.456 279.944 C 355.697 278.050,355.638 277.944,350.340 272.605 C 347.383 269.625,344.765 267.188,344.523 267.188 C 344.280 267.188,336.049 278.119,326.231 291.480 " stroke="none" fill="#000000" fill-rule="evenodd"></path></g></svg>